<svg width="36" height="36" viewBox="0 0 36 36" fill="none" xmlns="http://www.w3.org/2000/svg">
<rect width="36" height="36" rx="18" fill="#F5F5F5"/>
<rect width="36" height="36" rx="18" fill="#2726DD"/>
<mask id="mask0_1246_1934" style="mask-type:luminance" maskUnits="userSpaceOnUse" x="6" y="6" width="24" height="24">
<path fill-rule="evenodd" clip-rule="evenodd" d="M18 8C23.5228 8 28 12.4772 28 18C28 23.5228 23.5228 28 18 28C12.4772 28 8 23.5228 8 18C8 12.4772 12.4772 8 18 8ZM24.0079 19.1052C23.8408 19.6622 23.607 20.2088 23.3036 20.7344C21.1962 24.3845 16.5288 25.6351 12.8787 23.5277C12.353 23.2242 11.877 22.8676 11.4536 22.4686C11.9985 23.6963 12.9232 24.7689 14.1756 25.492C17.3222 27.3087 21.3459 26.2306 23.1626 23.0839C23.8855 21.8317 24.1501 20.4406 24.0079 19.1052ZM17.3434 10.3351C16.0077 10.1932 14.6164 10.4577 13.3641 11.1807C10.2174 12.9975 9.13932 17.0211 10.956 20.1678C11.679 21.42 12.7514 22.3446 13.9791 22.8892C13.5802 22.466 13.2237 21.9902 12.9203 21.4647C10.8129 17.8145 12.0635 13.1471 15.7136 11.0397C16.2393 10.7362 16.7861 10.5023 17.3434 10.3351ZM18 13.7895C15.6746 13.7895 13.7895 15.6746 13.7895 18C13.7895 20.3254 15.6746 22.2105 18 22.2105C20.3254 22.2105 22.2105 20.3254 22.2105 18C22.2105 15.6746 20.3254 13.7895 18 13.7895ZM19.8421 11.1579C18.3962 11.1579 17.0592 11.6243 15.9738 12.4152C16.5397 12.2814 17.13 12.2105 17.7368 12.2105C21.9516 12.2105 25.3684 15.6273 25.3684 19.8421C25.3684 20.4491 25.2976 21.0396 25.1637 21.6058C25.9545 20.52 26.4211 19.1829 26.4211 17.7368C26.4211 14.1034 23.4756 11.1579 19.8421 11.1579Z" fill="white"/>
</mask>
<g mask="url(#mask0_1246_1934)">
<rect x="6" y="6" width="24" height="24" fill="white"/>
</g>
</svg>
